<svg xmlns="http://www.w3.org/2000/svg" viewBox="0 0 49 49" shape-rendering="geometricPrecision" role="img" aria-label="Scan to open Data Darśana"><g fill="#EAF0FB"><rect x="13.04" y="4.04" width="0.92" height="0.92" rx="0.3" ry="0.3"/><rect x="16.04" y="4.04" width="0.92" height="0.92" rx="0.3" ry="0.3"/><rect x="17.04" y="4.04" width="0.92" height="0.92" rx="0.3" ry="0.3"/><rect x="18.04" y="4.04" width="0.92" height="0.92" rx="0.3" ry="0.3"/><rect x="24.04" y="4.04" width="0.92" height="0.92" rx="0.3" ry="0.3"/><rect x="25.04" y="4.04" width="0.92" height="0.92" rx="0.3" ry="0.3"/><rect x="27.04" y="4.04" width="0.92" height="0.92" rx="0.3" ry="0.3"/><rect x="28.04" y="4.04" width="0.92" height="0.92" rx="0.3" ry="0.3"/><rect x="30.04" y="4.04" width="0.92" height="0.92" rx="0.3" ry="0.3"/><rect x="33.04" y="4.04" width="0.92" height="0.92" rx="0.3" ry="0.3"/><rect x="34.04" y="4.04" width="0.92" height="0.92" rx="0.3" ry="0.3"/><rect x="14.04" y="5.04" width="0.92" height="0.92" rx="0.3" ry="0.3"/><rect x="15.04" y="5.04" width="0.92" height="0.92" rx="0.3" ry="0.3"/><rect x="18.04" y="5.04" width="0.92" height="0.92" rx="0.3" ry="0.3"/><rect x="19.04" y="5.04" width="0.92" height="0.92" rx="0.3" ry="0.3"/><rect x="20.04" y="5.04" width="0.92" height="0.92" rx="0.3" ry="0.3"/><rect x="21.04" y="5.04" width="0.92" height="0.92" rx="0.3" ry="0.3"/><rect x="23.04" y="5.04" width="0.92" height="0.92" rx="0.3" ry="0.3"/><rect x="27.04" y="5.04" width="0.92" height="0.92" rx="0.3" ry="0.3"/><rect x="34.04" y="5.04" width="0.92" height="0.92" rx="0.3" ry="0.3"/><rect x="35.04" y="5.04" width="0.92" height="0.92" rx="0.3" ry="0.3"/><rect x="36.04" y="5.04" width="0.92" height="0.92" rx="0.3" ry="0.3"/><rect x="12.04" y="6.04" width="0.92" height="0.92" rx="0.3" ry="0.3"/><rect x="15.04" y="6.04" width="0.92" height="0.92" rx="0.3" ry="0.3"/><rect x="16.04" y="6.04" width="0.92" height="0.92" rx="0.3" ry="0.3"/><rect x="17.04" y="6.04" width="0.92" height="0.92" rx="0.3" ry="0.3"/><rect x="21.04" y="6.04" width="0.92" height="0.92" rx="0.3" ry="0.3"/><rect x="24.04" y="6.04" width="0.92" height="0.92" rx="0.3" ry="0.3"/><rect x="27.04" y="6.04" width="0.92" height="0.92" rx="0.3" ry="0.3"/><rect x="28.04" y="6.04" width="0.92" height="0.92" rx="0.3" ry="0.3"/><rect x="31.04" y="6.04" width="0.92" height="0.92" rx="0.3" ry="0.3"/><rect x="35.04" y="6.04" width="0.92" height="0.92" rx="0.3" ry="0.3"/><rect x="36.04" y="6.04" width="0.92" height="0.92" rx="0.3" ry="0.3"/><rect x="12.04" y="7.04" width="0.92" height="0.92" rx="0.3" ry="0.3"/><rect x="14.04" y="7.04" width="0.92" height="0.92" rx="0.3" ry="0.3"/><rect x="16.04" y="7.04" width="0.92" height="0.92" rx="0.3" ry="0.3"/><rect x="19.04" y="7.04" width="0.92" height="0.92" rx="0.3" ry="0.3"/><rect x="23.04" y="7.04" width="0.92" height="0.92" rx="0.3" ry="0.3"/><rect x="26.04" y="7.04" width="0.92" height="0.92" rx="0.3" ry="0.3"/><rect x="32.04" y="7.04" width="0.92" height="0.92" rx="0.3" ry="0.3"/><rect x="34.04" y="7.04" width="0.92" height="0.92" rx="0.3" ry="0.3"/><rect x="36.04" y="7.04" width="0.92" height="0.92" rx="0.3" ry="0.3"/><rect x="13.04" y="8.04" width="0.92" height="0.92" rx="0.3" ry="0.3"/><rect x="14.04" y="8.04" width="0.92" height="0.92" rx="0.3" ry="0.3"/><rect x="16.04" y="8.04" width="0.92" height="0.92" rx="0.3" ry="0.3"/><rect x="18.04" y="8.04" width="0.92" height="0.92" rx="0.3" ry="0.3"/><rect x="23.04" y="8.04" width="0.92" height="0.92" rx="0.3" ry="0.3"/><rect x="24.04" y="8.04" width="0.92" height="0.92" rx="0.3" ry="0.3"/><rect x="26.04" y="8.04" width="0.92" height="0.92" rx="0.3" ry="0.3"/><rect x="27.04" y="8.04" width="0.92" height="0.92" rx="0.3" ry="0.3"/><rect x="30.04" y="8.04" width="0.92" height="0.92" rx="0.3" ry="0.3"/><rect x="32.04" y="8.04" width="0.92" height="0.92" rx="0.3" ry="0.3"/><rect x="33.04" y="8.04" width="0.92" height="0.92" rx="0.3" ry="0.3"/><rect x="35.04" y="8.04" width="0.92" height="0.92" rx="0.3" ry="0.3"/><rect x="13.04" y="9.04" width="0.92" height="0.92" rx="0.3" ry="0.3"/><rect x="14.04" y="9.04" width="0.92" height="0.92" rx="0.3" ry="0.3"/><rect x="17.04" y="9.04" width="0.92" height="0.92" rx="0.3" ry="0.3"/><rect x="18.04" y="9.04" width="0.92" height="0.92" rx="0.3" ry="0.3"/><rect x="19.04" y="9.04" width="0.92" height="0.92" rx="0.3" ry="0.3"/><rect x="20.04" y="9.04" width="0.92" height="0.92" rx="0.3" ry="0.3"/><rect x="24.04" y="9.04" width="0.92" height="0.92" rx="0.3" ry="0.3"/><rect x="27.04" y="9.04" width="0.92" height="0.92" rx="0.3" ry="0.3"/><rect x="33.04" y="9.04" width="0.92" height="0.92" rx="0.3" ry="0.3"/><rect x="34.04" y="9.04" width="0.92" height="0.92" rx="0.3" ry="0.3"/><rect x="12.04" y="10.04" width="0.92" height="0.92" rx="0.3" ry="0.3"/><rect x="14.04" y="10.04" width="0.92" height="0.92" rx="0.3" ry="0.3"/><rect x="16.04" y="10.04" width="0.92" height="0.92" rx="0.3" ry="0.3"/><rect x="18.04" y="10.04" width="0.92" height="0.92" rx="0.3" ry="0.3"/><rect x="20.04" y="10.04" width="0.92" height="0.92" rx="0.3" ry="0.3"/><rect x="22.04" y="10.04" width="0.92" height="0.92" rx="0.3" ry="0.3"/><rect x="24.04" y="10.04" width="0.92" height="0.92" rx="0.3" ry="0.3"/><rect x="26.04" y="10.04" width="0.92" height="0.92" rx="0.3" ry="0.3"/><rect x="28.04" y="10.04" width="0.92" height="0.92" rx="0.3" ry="0.3"/><rect x="30.04" y="10.04" width="0.92" height="0.92" rx="0.3" ry="0.3"/><rect x="32.04" y="10.04" width="0.92" height="0.92" rx="0.3" ry="0.3"/><rect x="34.04" y="10.04" width="0.92" height="0.92" rx="0.3" ry="0.3"/><rect x="36.04" y="10.04" width="0.92" height="0.92" rx="0.3" ry="0.3"/><rect x="13.04" y="11.04" width="0.92" height="0.92" rx="0.3" ry="0.3"/><rect x="15.04" y="11.04" width="0.92" height="0.92" rx="0.3" ry="0.3"/><rect x="16.04" y="11.04" width="0.92" height="0.92" rx="0.3" ry="0.3"/><rect x="17.04" y="11.04" width="0.92" height="0.92" rx="0.3" ry="0.3"/><rect x="19.04" y="11.04" width="0.92" height="0.92" rx="0.3" ry="0.3"/><rect x="20.04" y="11.04" width="0.92" height="0.92" rx="0.3" ry="0.3"/><rect x="24.04" y="11.04" width="0.92" height="0.92" rx="0.3" ry="0.3"/><rect x="25.04" y="11.04" width="0.92" height="0.92" rx="0.3" ry="0.3"/><rect x="26.04" y="11.04" width="0.92" height="0.92" rx="0.3" ry="0.3"/><rect x="28.04" y="11.04" width="0.92" height="0.92" rx="0.3" ry="0.3"/><rect x="30.04" y="11.04" width="0.92" height="0.92" rx="0.3" ry="0.3"/><rect x="31.04" y="11.04" width="0.92" height="0.92" rx="0.3" ry="0.3"/><rect x="32.04" y="11.04" width="0.92" height="0.92" rx="0.3" ry="0.3"/><rect x="7.04" y="12.04" width="0.92" height="0.92" rx="0.3" ry="0.3"/><rect x="8.04" y="12.04" width="0.92" height="0.92" rx="0.3" ry="0.3"/><rect x="10.04" y="12.04" width="0.92" height="0.92" rx="0.3" ry="0.3"/><rect x="11.04" y="12.04" width="0.92" height="0.92" rx="0.3" ry="0.3"/><rect x="14.04" y="12.04" width="0.92" height="0.92" rx="0.3" ry="0.3"/><rect x="16.04" y="12.04" width="0.92" height="0.92" rx="0.3" ry="0.3"/><rect x="17.04" y="12.04" width="0.92" height="0.92" rx="0.3" ry="0.3"/><rect x="18.04" y="12.04" width="0.92" height="0.92" rx="0.3" ry="0.3"/><rect x="19.04" y="12.04" width="0.92" height="0.92" rx="0.3" ry="0.3"/><rect x="21.04" y="12.04" width="0.92" height="0.92" rx="0.3" ry="0.3"/><rect x="26.04" y="12.04" width="0.92" height="0.92" rx="0.3" ry="0.3"/><rect x="29.04" y="12.04" width="0.92" height="0.92" rx="0.3" ry="0.3"/><rect x="30.04" y="12.04" width="0.92" height="0.92" rx="0.3" ry="0.3"/><rect x="31.04" y="12.04" width="0.92" height="0.92" rx="0.3" ry="0.3"/><rect x="33.04" y="12.04" width="0.92" height="0.92" rx="0.3" ry="0.3"/><rect x="41.04" y="12.04" width="0.92" height="0.92" rx="0.3" ry="0.3"/><rect x="42.04" y="12.04" width="0.92" height="0.92" rx="0.3" ry="0.3"/><rect x="5.04" y="13.04" width="0.92" height="0.92" rx="0.3" ry="0.3"/><rect x="11.04" y="13.04" width="0.92" height="0.92" rx="0.3" ry="0.3"/><rect x="12.04" y="13.04" width="0.92" height="0.92" rx="0.3" ry="0.3"/><rect x="16.04" y="13.04" width="0.92" height="0.92" rx="0.3" ry="0.3"/><rect x="17.04" y="13.04" width="0.92" height="0.92" rx="0.3" ry="0.3"/><rect x="18.04" y="13.04" width="0.92" height="0.92" rx="0.3" ry="0.3"/><rect x="20.04" y="13.04" width="0.92" height="0.92" rx="0.3" ry="0.3"/><rect x="22.04" y="13.04" width="0.92" height="0.92" rx="0.3" ry="0.3"/><rect x="25.04" y="13.04" width="0.92" height="0.92" rx="0.3" ry="0.3"/><rect x="27.04" y="13.04" width="0.92" height="0.92" rx="0.3" ry="0.3"/><rect x="29.04" y="13.04" width="0.92" height="0.92" rx="0.3" ry="0.3"/><rect x="30.04" y="13.04" width="0.92" height="0.92" rx="0.3" ry="0.3"/><rect x="31.04" y="13.04" width="0.92" height="0.92" rx="0.3" ry="0.3"/><rect x="33.04" y="13.04" width="0.92" height="0.92" rx="0.3" ry="0.3"/><rect x="34.04" y="13.04" width="0.92" height="0.92" rx="0.3" ry="0.3"/><rect x="35.04" y="13.04" width="0.92" height="0.92" rx="0.3" ry="0.3"/><rect x="39.04" y="13.04" width="0.92" height="0.92" rx="0.3" ry="0.3"/><rect x="40.04" y="13.04" width="0.92" height="0.92" rx="0.3" ry="0.3"/><rect x="43.04" y="13.04" width="0.92" height="0.92" rx="0.3" ry="0.3"/><rect x="4.04" y="14.04" width="0.92" height="0.92" rx="0.3" ry="0.3"/><rect x="5.04" y="14.04" width="0.92" height="0.92" rx="0.3" ry="0.3"/><rect x="6.04" y="14.04" width="0.92" height="0.92" rx="0.3" ry="0.3"/><rect x="9.04" y="14.04" width="0.92" height="0.92" rx="0.3" ry="0.3"/><rect x="10.04" y="14.04" width="0.92" height="0.92" rx="0.3" ry="0.3"/><rect x="11.04" y="14.04" width="0.92" height="0.92" rx="0.3" ry="0.3"/><rect x="13.04" y="14.04" width="0.92" height="0.92" rx="0.3" ry="0.3"/><rect x="15.04" y="14.04" width="0.92" height="0.92" rx="0.3" ry="0.3"/><rect x="17.04" y="14.04" width="0.92" height="0.92" rx="0.3" ry="0.3"/><rect x="19.04" y="14.04" width="0.92" height="0.92" rx="0.3" ry="0.3"/><rect x="22.04" y="14.04" width="0.92" height="0.92" rx="0.3" ry="0.3"/><rect x="23.04" y="14.04" width="0.92" height="0.92" rx="0.3" ry="0.3"/><rect x="24.04" y="14.04" width="0.92" height="0.92" rx="0.3" ry="0.3"/><rect x="26.04" y="14.04" width="0.92" height="0.92" rx="0.3" ry="0.3"/><rect x="27.04" y="14.04" width="0.92" height="0.92" rx="0.3" ry="0.3"/><rect x="28.04" y="14.04" width="0.92" height="0.92" rx="0.3" ry="0.3"/><rect x="30.04" y="14.04" width="0.92" height="0.92" rx="0.3" ry="0.3"/><rect x="31.04" y="14.04" width="0.92" height="0.92" rx="0.3" ry="0.3"/><rect x="32.04" y="14.04" width="0.92" height="0.92" rx="0.3" ry="0.3"/><rect x="33.04" y="14.04" width="0.92" height="0.92" rx="0.3" ry="0.3"/><rect x="34.04" y="14.04" width="0.92" height="0.92" rx="0.3" ry="0.3"/><rect x="37.04" y="14.04" width="0.92" height="0.92" rx="0.3" ry="0.3"/><rect x="39.04" y="14.04" width="0.92" height="0.92" rx="0.3" ry="0.3"/><rect x="42.04" y="14.04" width="0.92" height="0.92" rx="0.3" ry="0.3"/><rect x="7.04" y="15.04" width="0.92" height="0.92" rx="0.3" ry="0.3"/><rect x="8.04" y="15.04" width="0.92" height="0.92" rx="0.3" ry="0.3"/><rect x="11.04" y="15.04" width="0.92" height="0.92" rx="0.3" ry="0.3"/><rect x="13.04" y="15.04" width="0.92" height="0.92" rx="0.3" ry="0.3"/><rect x="14.04" y="15.04" width="0.92" height="0.92" rx="0.3" ry="0.3"/><rect x="15.04" y="15.04" width="0.92" height="0.92" rx="0.3" ry="0.3"/><rect x="17.04" y="15.04" width="0.92" height="0.92" rx="0.3" ry="0.3"/><rect x="19.04" y="15.04" width="0.92" height="0.92" rx="0.3" ry="0.3"/><rect x="20.04" y="15.04" width="0.92" height="0.92" rx="0.3" ry="0.3"/><rect x="21.04" y="15.04" width="0.92" height="0.92" rx="0.3" ry="0.3"/><rect x="22.04" y="15.04" width="0.92" height="0.92" rx="0.3" ry="0.3"/><rect x="23.04" y="15.04" width="0.92" height="0.92" rx="0.3" ry="0.3"/><rect x="24.04" y="15.04" width="0.92" height="0.92" rx="0.3" ry="0.3"/><rect x="25.04" y="15.04" width="0.92" height="0.92" rx="0.3" ry="0.3"/><rect x="29.04" y="15.04" width="0.92" height="0.92" rx="0.3" ry="0.3"/><rect x="30.04" y="15.04" width="0.92" height="0.92" rx="0.3" ry="0.3"/><rect x="32.04" y="15.04" width="0.92" height="0.92" rx="0.3" ry="0.3"/><rect x="33.04" y="15.04" width="0.92" height="0.92" rx="0.3" ry="0.3"/><rect x="35.04" y="15.04" width="0.92" height="0.92" rx="0.3" ry="0.3"/><rect x="36.04" y="15.04" width="0.92" height="0.92" rx="0.3" ry="0.3"/><rect x="37.04" y="15.04" width="0.92" height="0.92" rx="0.3" ry="0.3"/><rect x="38.04" y="15.04" width="0.92" height="0.92" rx="0.3" ry="0.3"/><rect x="41.04" y="15.04" width="0.92" height="0.92" rx="0.3" ry="0.3"/><rect x="5.04" y="16.04" width="0.92" height="0.92" rx="0.3" ry="0.3"/><rect x="7.04" y="16.04" width="0.92" height="0.92" rx="0.3" ry="0.3"/><rect x="8.04" y="16.04" width="0.92" height="0.92" rx="0.3" ry="0.3"/><rect x="10.04" y="16.04" width="0.92" height="0.92" rx="0.3" ry="0.3"/><rect x="12.04" y="16.04" width="0.92" height="0.92" rx="0.3" ry="0.3"/><rect x="15.04" y="16.04" width="0.92" height="0.92" rx="0.3" ry="0.3"/><rect x="17.04" y="16.04" width="0.92" height="0.92" rx="0.3" ry="0.3"/><rect x="18.04" y="16.04" width="0.92" height="0.92" rx="0.3" ry="0.3"/><rect x="20.04" y="16.04" width="0.92" height="0.92" rx="0.3" ry="0.3"/><rect x="22.04" y="16.04" width="0.92" height="0.92" rx="0.3" ry="0.3"/><rect x="23.04" y="16.04" width="0.92" height="0.92" rx="0.3" ry="0.3"/><rect x="24.04" y="16.04" width="0.92" height="0.92" rx="0.3" ry="0.3"/><rect x="29.04" y="16.04" width="0.92" height="0.92" rx="0.3" ry="0.3"/><rect x="36.04" y="16.04" width="0.92" height="0.92" rx="0.3" ry="0.3"/><rect x="37.04" y="16.04" width="0.92" height="0.92" rx="0.3" ry="0.3"/><rect x="38.04" y="16.04" width="0.92" height="0.92" rx="0.3" ry="0.3"/><rect x="39.04" y="16.04" width="0.92" height="0.92" rx="0.3" ry="0.3"/><rect x="43.04" y="16.04" width="0.92" height="0.92" rx="0.3" ry="0.3"/><rect x="44.04" y="16.04" width="0.92" height="0.92" rx="0.3" ry="0.3"/><rect x="4.04" y="17.04" width="0.92" height="0.92" rx="0.3" ry="0.3"/><rect x="5.04" y="17.04" width="0.92" height="0.92" rx="0.3" ry="0.3"/><rect x="6.04" y="17.04" width="0.92" height="0.92" rx="0.3" ry="0.3"/><rect x="9.04" y="17.04" width="0.92" height="0.92" rx="0.3" ry="0.3"/><rect x="11.04" y="17.04" width="0.92" height="0.92" rx="0.3" ry="0.3"/><rect x="12.04" y="17.04" width="0.92" height="0.92" rx="0.3" ry="0.3"/><rect x="13.04" y="17.04" width="0.92" height="0.92" rx="0.3" ry="0.3"/><rect x="17.04" y="17.04" width="0.92" height="0.92" rx="0.3" ry="0.3"/><rect x="18.04" y="17.04" width="0.92" height="0.92" rx="0.3" ry="0.3"/><rect x="20.04" y="17.04" width="0.92" height="0.92" rx="0.3" ry="0.3"/><rect x="22.04" y="17.04" width="0.92" height="0.92" rx="0.3" ry="0.3"/><rect x="23.04" y="17.04" width="0.92" height="0.92" rx="0.3" ry="0.3"/><rect x="24.04" y="17.04" width="0.92" height="0.92" rx="0.3" ry="0.3"/><rect x="25.04" y="17.04" width="0.92" height="0.92" rx="0.3" ry="0.3"/><rect x="26.04" y="17.04" width="0.92" height="0.92" rx="0.3" ry="0.3"/><rect x="30.04" y="17.04" width="0.92" height="0.92" rx="0.3" ry="0.3"/><rect x="35.04" y="17.04" width="0.92" height="0.92" rx="0.3" ry="0.3"/><rect x="38.04" y="17.04" width="0.92" height="0.92" rx="0.3" ry="0.3"/><rect x="39.04" y="17.04" width="0.92" height="0.92" rx="0.3" ry="0.3"/><rect x="40.04" y="17.04" width="0.92" height="0.92" rx="0.3" ry="0.3"/><rect x="42.04" y="17.04" width="0.92" height="0.92" rx="0.3" ry="0.3"/><rect x="44.04" y="17.04" width="0.92" height="0.92" rx="0.3" ry="0.3"/><rect x="5.04" y="18.04" width="0.92" height="0.92" rx="0.3" ry="0.3"/><rect x="6.04" y="18.04" width="0.92" height="0.92" rx="0.3" ry="0.3"/><rect x="7.04" y="18.04" width="0.92" height="0.92" rx="0.3" ry="0.3"/><rect x="10.04" y="18.04" width="0.92" height="0.92" rx="0.3" ry="0.3"/><rect x="13.04" y="18.04" width="0.92" height="0.92" rx="0.3" ry="0.3"/><rect x="14.04" y="18.04" width="0.92" height="0.92" rx="0.3" ry="0.3"/><rect x="15.04" y="18.04" width="0.92" height="0.92" rx="0.3" ry="0.3"/><rect x="16.04" y="18.04" width="0.92" height="0.92" rx="0.3" ry="0.3"/><rect x="17.04" y="18.04" width="0.92" height="0.92" rx="0.3" ry="0.3"/><rect x="18.04" y="18.04" width="0.92" height="0.92" rx="0.3" ry="0.3"/><rect x="20.04" y="18.04" width="0.92" height="0.92" rx="0.3" ry="0.3"/><rect x="21.04" y="18.04" width="0.92" height="0.92" rx="0.3" ry="0.3"/><rect x="25.04" y="18.04" width="0.92" height="0.92" rx="0.3" ry="0.3"/><rect x="26.04" y="18.04" width="0.92" height="0.92" rx="0.3" ry="0.3"/><rect x="28.04" y="18.04" width="0.92" height="0.92" rx="0.3" ry="0.3"/><rect x="31.04" y="18.04" width="0.92" height="0.92" rx="0.3" ry="0.3"/><rect x="34.04" y="18.04" width="0.92" height="0.92" rx="0.3" ry="0.3"/><rect x="37.04" y="18.04" width="0.92" height="0.92" rx="0.3" ry="0.3"/><rect x="38.04" y="18.04" width="0.92" height="0.92" rx="0.3" ry="0.3"/><rect x="39.04" y="18.04" width="0.92" height="0.92" rx="0.3" ry="0.3"/><rect x="41.04" y="18.04" width="0.92" height="0.92" rx="0.3" ry="0.3"/><rect x="44.04" y="18.04" width="0.92" height="0.92" rx="0.3" ry="0.3"/><rect x="6.04" y="19.04" width="0.92" height="0.92" rx="0.3" ry="0.3"/><rect x="7.04" y="19.04" width="0.92" height="0.92" rx="0.3" ry="0.3"/><rect x="9.04" y="19.04" width="0.92" height="0.92" rx="0.3" ry="0.3"/><rect x="13.04" y="19.04" width="0.92" height="0.92" rx="0.3" ry="0.3"/><rect x="14.04" y="19.04" width="0.92" height="0.92" rx="0.3" ry="0.3"/><rect x="23.04" y="19.04" width="0.92" height="0.92" rx="0.3" ry="0.3"/><rect x="25.04" y="19.04" width="0.92" height="0.92" rx="0.3" ry="0.3"/><rect x="28.04" y="19.04" width="0.92" height="0.92" rx="0.3" ry="0.3"/><rect x="29.04" y="19.04" width="0.92" height="0.92" rx="0.3" ry="0.3"/><rect x="32.04" y="19.04" width="0.92" height="0.92" rx="0.3" ry="0.3"/><rect x="35.04" y="19.04" width="0.92" height="0.92" rx="0.3" ry="0.3"/><rect x="37.04" y="19.04" width="0.92" height="0.92" rx="0.3" ry="0.3"/><rect x="39.04" y="19.04" width="0.92" height="0.92" rx="0.3" ry="0.3"/><rect x="42.04" y="19.04" width="0.92" height="0.92" rx="0.3" ry="0.3"/><rect x="44.04" y="19.04" width="0.92" height="0.92" rx="0.3" ry="0.3"/><rect x="5.04" y="20.04" width="0.92" height="0.92" rx="0.3" ry="0.3"/><rect x="6.04" y="20.04" width="0.92" height="0.92" rx="0.3" ry="0.3"/><rect x="7.04" y="20.04" width="0.92" height="0.92" rx="0.3" ry="0.3"/><rect x="8.04" y="20.04" width="0.92" height="0.92" rx="0.3" ry="0.3"/><rect x="10.04" y="20.04" width="0.92" height="0.92" rx="0.3" ry="0.3"/><rect x="11.04" y="20.04" width="0.92" height="0.92" rx="0.3" ry="0.3"/><rect x="13.04" y="20.04" width="0.92" height="0.92" rx="0.3" ry="0.3"/><rect x="14.04" y="20.04" width="0.92" height="0.92" rx="0.3" ry="0.3"/><rect x="17.04" y="20.04" width="0.92" height="0.92" rx="0.3" ry="0.3"/><rect x="20.04" y="20.04" width="0.92" height="0.92" rx="0.3" ry="0.3"/><rect x="21.04" y="20.04" width="0.92" height="0.92" rx="0.3" ry="0.3"/><rect x="22.04" y="20.04" width="0.92" height="0.92" rx="0.3" ry="0.3"/><rect x="25.04" y="20.04" width="0.92" height="0.92" rx="0.3" ry="0.3"/><rect x="26.04" y="20.04" width="0.92" height="0.92" rx="0.3" ry="0.3"/><rect x="27.04" y="20.04" width="0.92" height="0.92" rx="0.3" ry="0.3"/><rect x="30.04" y="20.04" width="0.92" height="0.92" rx="0.3" ry="0.3"/><rect x="31.04" y="20.04" width="0.92" height="0.92" rx="0.3" ry="0.3"/><rect x="35.04" y="20.04" width="0.92" height="0.92" rx="0.3" ry="0.3"/><rect x="36.04" y="20.04" width="0.92" height="0.92" rx="0.3" ry="0.3"/><rect x="37.04" y="20.04" width="0.92" height="0.92" rx="0.3" ry="0.3"/><rect x="4.04" y="21.04" width="0.92" height="0.92" rx="0.3" ry="0.3"/><rect x="7.04" y="21.04" width="0.92" height="0.92" rx="0.3" ry="0.3"/><rect x="12.04" y="21.04" width="0.92" height="0.92" rx="0.3" ry="0.3"/><rect x="13.04" y="21.04" width="0.92" height="0.92" rx="0.3" ry="0.3"/><rect x="17.04" y="21.04" width="0.92" height="0.92" rx="0.3" ry="0.3"/><rect x="18.04" y="21.04" width="0.92" height="0.92" rx="0.3" ry="0.3"/><rect x="23.04" y="21.04" width="0.92" height="0.92" rx="0.3" ry="0.3"/><rect x="24.04" y="21.04" width="0.92" height="0.92" rx="0.3" ry="0.3"/><rect x="25.04" y="21.04" width="0.92" height="0.92" rx="0.3" ry="0.3"/><rect x="26.04" y="21.04" width="0.92" height="0.92" rx="0.3" ry="0.3"/><rect x="28.04" y="21.04" width="0.92" height="0.92" rx="0.3" ry="0.3"/><rect x="31.04" y="21.04" width="0.92" height="0.92" rx="0.3" ry="0.3"/><rect x="35.04" y="21.04" width="0.92" height="0.92" rx="0.3" ry="0.3"/><rect x="36.04" y="21.04" width="0.92" height="0.92" rx="0.3" ry="0.3"/><rect x="37.04" y="21.04" width="0.92" height="0.92" rx="0.3" ry="0.3"/><rect x="40.04" y="21.04" width="0.92" height="0.92" rx="0.3" ry="0.3"/><rect x="42.04" y="21.04" width="0.92" height="0.92" rx="0.3" ry="0.3"/><rect x="43.04" y="21.04" width="0.92" height="0.92" rx="0.3" ry="0.3"/><rect x="6.04" y="22.04" width="0.92" height="0.92" rx="0.3" ry="0.3"/><rect x="7.04" y="22.04" width="0.92" height="0.92" rx="0.3" ry="0.3"/><rect x="8.04" y="22.04" width="0.92" height="0.92" rx="0.3" ry="0.3"/><rect x="10.04" y="22.04" width="0.92" height="0.92" rx="0.3" ry="0.3"/><rect x="11.04" y="22.04" width="0.92" height="0.92" rx="0.3" ry="0.3"/><rect x="12.04" y="22.04" width="0.92" height="0.92" rx="0.3" ry="0.3"/><rect x="13.04" y="22.04" width="0.92" height="0.92" rx="0.3" ry="0.3"/><rect x="14.04" y="22.04" width="0.92" height="0.92" rx="0.3" ry="0.3"/><rect x="15.04" y="22.04" width="0.92" height="0.92" rx="0.3" ry="0.3"/><rect x="17.04" y="22.04" width="0.92" height="0.92" rx="0.3" ry="0.3"/><rect x="19.04" y="22.04" width="0.92" height="0.92" rx="0.3" ry="0.3"/><rect x="21.04" y="22.04" width="0.92" height="0.92" rx="0.3" ry="0.3"/><rect x="22.04" y="22.04" width="0.92" height="0.92" rx="0.3" ry="0.3"/><rect x="26.04" y="22.04" width="0.92" height="0.92" rx="0.3" ry="0.3"/><rect x="28.04" y="22.04" width="0.92" height="0.92" rx="0.3" ry="0.3"/><rect x="29.04" y="22.04" width="0.92" height="0.92" rx="0.3" ry="0.3"/><rect x="31.04" y="22.04" width="0.92" height="0.92" rx="0.3" ry="0.3"/><rect x="35.04" y="22.04" width="0.92" height="0.92" rx="0.3" ry="0.3"/><rect x="39.04" y="22.04" width="0.92" height="0.92" rx="0.3" ry="0.3"/><rect x="40.04" y="22.04" width="0.92" height="0.92" rx="0.3" ry="0.3"/><rect x="41.04" y="22.04" width="0.92" height="0.92" rx="0.3" ry="0.3"/><rect x="42.04" y="22.04" width="0.92" height="0.92" rx="0.3" ry="0.3"/><rect x="44.04" y="22.04" width="0.92" height="0.92" rx="0.3" ry="0.3"/><rect x="4.04" y="23.04" width="0.92" height="0.92" rx="0.3" ry="0.3"/><rect x="5.04" y="23.04" width="0.92" height="0.92" rx="0.3" ry="0.3"/><rect x="7.04" y="23.04" width="0.92" height="0.92" rx="0.3" ry="0.3"/><rect x="9.04" y="23.04" width="0.92" height="0.92" rx="0.3" ry="0.3"/><rect x="11.04" y="23.04" width="0.92" height="0.92" rx="0.3" ry="0.3"/><rect x="14.04" y="23.04" width="0.92" height="0.92" rx="0.3" ry="0.3"/><rect x="15.04" y="23.04" width="0.92" height="0.92" rx="0.3" ry="0.3"/><rect x="22.04" y="23.04" width="0.92" height="0.92" rx="0.3" ry="0.3"/><rect x="24.04" y="23.04" width="0.92" height="0.92" rx="0.3" ry="0.3"/><rect x="26.04" y="23.04" width="0.92" height="0.92" rx="0.3" ry="0.3"/><rect x="27.04" y="23.04" width="0.92" height="0.92" rx="0.3" ry="0.3"/><rect x="28.04" y="23.04" width="0.92" height="0.92" rx="0.3" ry="0.3"/><rect x="30.04" y="23.04" width="0.92" height="0.92" rx="0.3" ry="0.3"/><rect x="32.04" y="23.04" width="0.92" height="0.92" rx="0.3" ry="0.3"/><rect x="33.04" y="23.04" width="0.92" height="0.92" rx="0.3" ry="0.3"/><rect x="34.04" y="23.04" width="0.92" height="0.92" rx="0.3" ry="0.3"/><rect x="37.04" y="23.04" width="0.92" height="0.92" rx="0.3" ry="0.3"/><rect x="40.04" y="23.04" width="0.92" height="0.92" rx="0.3" ry="0.3"/><rect x="42.04" y="23.04" width="0.92" height="0.92" rx="0.3" ry="0.3"/><rect x="43.04" y="23.04" width="0.92" height="0.92" rx="0.3" ry="0.3"/><rect x="44.04" y="23.04" width="0.92" height="0.92" rx="0.3" ry="0.3"/><rect x="6.04" y="24.04" width="0.92" height="0.92" rx="0.3" ry="0.3"/><rect x="9.04" y="24.04" width="0.92" height="0.92" rx="0.3" ry="0.3"/><rect x="10.04" y="24.04" width="0.92" height="0.92" rx="0.3" ry="0.3"/><rect x="11.04" y="24.04" width="0.92" height="0.92" rx="0.3" ry="0.3"/><rect x="13.04" y="24.04" width="0.92" height="0.92" rx="0.3" ry="0.3"/><rect x="16.04" y="24.04" width="0.92" height="0.92" rx="0.3" ry="0.3"/><rect x="17.04" y="24.04" width="0.92" height="0.92" rx="0.3" ry="0.3"/><rect x="18.04" y="24.04" width="0.92" height="0.92" rx="0.3" ry="0.3"/><rect x="21.04" y="24.04" width="0.92" height="0.92" rx="0.3" ry="0.3"/><rect x="22.04" y="24.04" width="0.92" height="0.92" rx="0.3" ry="0.3"/><rect x="23.04" y="24.04" width="0.92" height="0.92" rx="0.3" ry="0.3"/><rect x="24.04" y="24.04" width="0.92" height="0.92" rx="0.3" ry="0.3"/><rect x="28.04" y="24.04" width="0.92" height="0.92" rx="0.3" ry="0.3"/><rect x="29.04" y="24.04" width="0.92" height="0.92" rx="0.3" ry="0.3"/><rect x="32.04" y="24.04" width="0.92" height="0.92" rx="0.3" ry="0.3"/><rect x="38.04" y="24.04" width="0.92" height="0.92" rx="0.3" ry="0.3"/><rect x="42.04" y="24.04" width="0.92" height="0.92" rx="0.3" ry="0.3"/><rect x="43.04" y="24.04" width="0.92" height="0.92" rx="0.3" ry="0.3"/><rect x="44.04" y="24.04" width="0.92" height="0.92" rx="0.3" ry="0.3"/><rect x="5.04" y="25.04" width="0.92" height="0.92" rx="0.3" ry="0.3"/><rect x="7.04" y="25.04" width="0.92" height="0.92" rx="0.3" ry="0.3"/><rect x="8.04" y="25.04" width="0.92" height="0.92" rx="0.3" ry="0.3"/><rect x="12.04" y="25.04" width="0.92" height="0.92" rx="0.3" ry="0.3"/><rect x="15.04" y="25.04" width="0.92" height="0.92" rx="0.3" ry="0.3"/><rect x="16.04" y="25.04" width="0.92" height="0.92" rx="0.3" ry="0.3"/><rect x="17.04" y="25.04" width="0.92" height="0.92" rx="0.3" ry="0.3"/><rect x="20.04" y="25.04" width="0.92" height="0.92" rx="0.3" ry="0.3"/><rect x="21.04" y="25.04" width="0.92" height="0.92" rx="0.3" ry="0.3"/><rect x="29.04" y="25.04" width="0.92" height="0.92" rx="0.3" ry="0.3"/><rect x="30.04" y="25.04" width="0.92" height="0.92" rx="0.3" ry="0.3"/><rect x="31.04" y="25.04" width="0.92" height="0.92" rx="0.3" ry="0.3"/><rect x="33.04" y="25.04" width="0.92" height="0.92" rx="0.3" ry="0.3"/><rect x="34.04" y="25.04" width="0.92" height="0.92" rx="0.3" ry="0.3"/><rect x="35.04" y="25.04" width="0.92" height="0.92" rx="0.3" ry="0.3"/><rect x="39.04" y="25.04" width="0.92" height="0.92" rx="0.3" ry="0.3"/><rect x="40.04" y="25.04" width="0.92" height="0.92" rx="0.3" ry="0.3"/><rect x="42.04" y="25.04" width="0.92" height="0.92" rx="0.3" ry="0.3"/><rect x="4.04" y="26.04" width="0.92" height="0.92" rx="0.3" ry="0.3"/><rect x="5.04" y="26.04" width="0.92" height="0.92" rx="0.3" ry="0.3"/><rect x="6.04" y="26.04" width="0.92" height="0.92" rx="0.3" ry="0.3"/><rect x="7.04" y="26.04" width="0.92" height="0.92" rx="0.3" ry="0.3"/><rect x="10.04" y="26.04" width="0.92" height="0.92" rx="0.3" ry="0.3"/><rect x="11.04" y="26.04" width="0.92" height="0.92" rx="0.3" ry="0.3"/><rect x="12.04" y="26.04" width="0.92" height="0.92" rx="0.3" ry="0.3"/><rect x="14.04" y="26.04" width="0.92" height="0.92" rx="0.3" ry="0.3"/><rect x="16.04" y="26.04" width="0.92" height="0.92" rx="0.3" ry="0.3"/><rect x="17.04" y="26.04" width="0.92" height="0.92" rx="0.3" ry="0.3"/><rect x="18.04" y="26.04" width="0.92" height="0.92" rx="0.3" ry="0.3"/><rect x="19.04" y="26.04" width="0.92" height="0.92" rx="0.3" ry="0.3"/><rect x="20.04" y="26.04" width="0.92" height="0.92" rx="0.3" ry="0.3"/><rect x="21.04" y="26.04" width="0.92" height="0.92" rx="0.3" ry="0.3"/><rect x="23.04" y="26.04" width="0.92" height="0.92" rx="0.3" ry="0.3"/><rect x="25.04" y="26.04" width="0.92" height="0.92" rx="0.3" ry="0.3"/><rect x="26.04" y="26.04" width="0.92" height="0.92" rx="0.3" ry="0.3"/><rect x="30.04" y="26.04" width="0.92" height="0.92" rx="0.3" ry="0.3"/><rect x="31.04" y="26.04" width="0.92" height="0.92" rx="0.3" ry="0.3"/><rect x="33.04" y="26.04" width="0.92" height="0.92" rx="0.3" ry="0.3"/><rect x="34.04" y="26.04" width="0.92" height="0.92" rx="0.3" ry="0.3"/><rect x="37.04" y="26.04" width="0.92" height="0.92" rx="0.3" ry="0.3"/><rect x="38.04" y="26.04" width="0.92" height="0.92" rx="0.3" ry="0.3"/><rect x="39.04" y="26.04" width="0.92" height="0.92" rx="0.3" ry="0.3"/><rect x="41.04" y="26.04" width="0.92" height="0.92" rx="0.3" ry="0.3"/><rect x="4.04" y="27.04" width="0.92" height="0.92" rx="0.3" ry="0.3"/><rect x="5.04" y="27.04" width="0.92" height="0.92" rx="0.3" ry="0.3"/><rect x="6.04" y="27.04" width="0.92" height="0.92" rx="0.3" ry="0.3"/><rect x="7.04" y="27.04" width="0.92" height="0.92" rx="0.3" ry="0.3"/><rect x="12.04" y="27.04" width="0.92" height="0.92" rx="0.3" ry="0.3"/><rect x="14.04" y="27.04" width="0.92" height="0.92" rx="0.3" ry="0.3"/><rect x="15.04" y="27.04" width="0.92" height="0.92" rx="0.3" ry="0.3"/><rect x="19.04" y="27.04" width="0.92" height="0.92" rx="0.3" ry="0.3"/><rect x="20.04" y="27.04" width="0.92" height="0.92" rx="0.3" ry="0.3"/><rect x="21.04" y="27.04" width="0.92" height="0.92" rx="0.3" ry="0.3"/><rect x="24.04" y="27.04" width="0.92" height="0.92" rx="0.3" ry="0.3"/><rect x="26.04" y="27.04" width="0.92" height="0.92" rx="0.3" ry="0.3"/><rect x="28.04" y="27.04" width="0.92" height="0.92" rx="0.3" ry="0.3"/><rect x="31.04" y="27.04" width="0.92" height="0.92" rx="0.3" ry="0.3"/><rect x="33.04" y="27.04" width="0.92" height="0.92" rx="0.3" ry="0.3"/><rect x="36.04" y="27.04" width="0.92" height="0.92" rx="0.3" ry="0.3"/><rect x="37.04" y="27.04" width="0.92" height="0.92" rx="0.3" ry="0.3"/><rect x="38.04" y="27.04" width="0.92" height="0.92" rx="0.3" ry="0.3"/><rect x="41.04" y="27.04" width="0.92" height="0.92" rx="0.3" ry="0.3"/><rect x="5.04" y="28.04" width="0.92" height="0.92" rx="0.3" ry="0.3"/><rect x="6.04" y="28.04" width="0.92" height="0.92" rx="0.3" ry="0.3"/><rect x="7.04" y="28.04" width="0.92" height="0.92" rx="0.3" ry="0.3"/><rect x="10.04" y="28.04" width="0.92" height="0.92" rx="0.3" ry="0.3"/><rect x="11.04" y="28.04" width="0.92" height="0.92" rx="0.3" ry="0.3"/><rect x="14.04" y="28.04" width="0.92" height="0.92" rx="0.3" ry="0.3"/><rect x="16.04" y="28.04" width="0.92" height="0.92" rx="0.3" ry="0.3"/><rect x="17.04" y="28.04" width="0.92" height="0.92" rx="0.3" ry="0.3"/><rect x="19.04" y="28.04" width="0.92" height="0.92" rx="0.3" ry="0.3"/><rect x="20.04" y="28.04" width="0.92" height="0.92" rx="0.3" ry="0.3"/><rect x="21.04" y="28.04" width="0.92" height="0.92" rx="0.3" ry="0.3"/><rect x="24.04" y="28.04" width="0.92" height="0.92" rx="0.3" ry="0.3"/><rect x="26.04" y="28.04" width="0.92" height="0.92" rx="0.3" ry="0.3"/><rect x="28.04" y="28.04" width="0.92" height="0.92" rx="0.3" ry="0.3"/><rect x="29.04" y="28.04" width="0.92" height="0.92" rx="0.3" ry="0.3"/><rect x="32.04" y="28.04" width="0.92" height="0.92" rx="0.3" ry="0.3"/><rect x="34.04" y="28.04" width="0.92" height="0.92" rx="0.3" ry="0.3"/><rect x="35.04" y="28.04" width="0.92" height="0.92" rx="0.3" ry="0.3"/><rect x="36.04" y="28.04" width="0.92" height="0.92" rx="0.3" ry="0.3"/><rect x="38.04" y="28.04" width="0.92" height="0.92" rx="0.3" ry="0.3"/><rect x="39.04" y="28.04" width="0.92" height="0.92" rx="0.3" ry="0.3"/><rect x="41.04" y="28.04" width="0.92" height="0.92" rx="0.3" ry="0.3"/><rect x="43.04" y="28.04" width="0.92" height="0.92" rx="0.3" ry="0.3"/><rect x="44.04" y="28.04" width="0.92" height="0.92" rx="0.3" ry="0.3"/><rect x="4.04" y="29.04" width="0.92" height="0.92" rx="0.3" ry="0.3"/><rect x="8.04" y="29.04" width="0.92" height="0.92" rx="0.3" ry="0.3"/><rect x="11.04" y="29.04" width="0.92" height="0.92" rx="0.3" ry="0.3"/><rect x="13.04" y="29.04" width="0.92" height="0.92" rx="0.3" ry="0.3"/><rect x="17.04" y="29.04" width="0.92" height="0.92" rx="0.3" ry="0.3"/><rect x="18.04" y="29.04" width="0.92" height="0.92" rx="0.3" ry="0.3"/><rect x="19.04" y="29.04" width="0.92" height="0.92" rx="0.3" ry="0.3"/><rect x="21.04" y="29.04" width="0.92" height="0.92" rx="0.3" ry="0.3"/><rect x="23.04" y="29.04" width="0.92" height="0.92" rx="0.3" ry="0.3"/><rect x="25.04" y="29.04" width="0.92" height="0.92" rx="0.3" ry="0.3"/><rect x="26.04" y="29.04" width="0.92" height="0.92" rx="0.3" ry="0.3"/><rect x="27.04" y="29.04" width="0.92" height="0.92" rx="0.3" ry="0.3"/><rect x="28.04" y="29.04" width="0.92" height="0.92" rx="0.3" ry="0.3"/><rect x="31.04" y="29.04" width="0.92" height="0.92" rx="0.3" ry="0.3"/><rect x="32.04" y="29.04" width="0.92" height="0.92" rx="0.3" ry="0.3"/><rect x="34.04" y="29.04" width="0.92" height="0.92" rx="0.3" ry="0.3"/><rect x="36.04" y="29.04" width="0.92" height="0.92" rx="0.3" ry="0.3"/><rect x="38.04" y="29.04" width="0.92" height="0.92" rx="0.3" ry="0.3"/><rect x="40.04" y="29.04" width="0.92" height="0.92" rx="0.3" ry="0.3"/><rect x="42.04" y="29.04" width="0.92" height="0.92" rx="0.3" ry="0.3"/><rect x="43.04" y="29.04" width="0.92" height="0.92" rx="0.3" ry="0.3"/><rect x="44.04" y="29.04" width="0.92" height="0.92" rx="0.3" ry="0.3"/><rect x="5.04" y="30.04" width="0.92" height="0.92" rx="0.3" ry="0.3"/><rect x="7.04" y="30.04" width="0.92" height="0.92" rx="0.3" ry="0.3"/><rect x="10.04" y="30.04" width="0.92" height="0.92" rx="0.3" ry="0.3"/><rect x="14.04" y="30.04" width="0.92" height="0.92" rx="0.3" ry="0.3"/><rect x="16.04" y="30.04" width="0.92" height="0.92" rx="0.3" ry="0.3"/><rect x="18.04" y="30.04" width="0.92" height="0.92" rx="0.3" ry="0.3"/><rect x="20.04" y="30.04" width="0.92" height="0.92" rx="0.3" ry="0.3"/><rect x="23.04" y="30.04" width="0.92" height="0.92" rx="0.3" ry="0.3"/><rect x="24.04" y="30.04" width="0.92" height="0.92" rx="0.3" ry="0.3"/><rect x="25.04" y="30.04" width="0.92" height="0.92" rx="0.3" ry="0.3"/><rect x="27.04" y="30.04" width="0.92" height="0.92" rx="0.3" ry="0.3"/><rect x="28.04" y="30.04" width="0.92" height="0.92" rx="0.3" ry="0.3"/><rect x="29.04" y="30.04" width="0.92" height="0.92" rx="0.3" ry="0.3"/><rect x="31.04" y="30.04" width="0.92" height="0.92" rx="0.3" ry="0.3"/><rect x="32.04" y="30.04" width="0.92" height="0.92" rx="0.3" ry="0.3"/><rect x="35.04" y="30.04" width="0.92" height="0.92" rx="0.3" ry="0.3"/><rect x="36.04" y="30.04" width="0.92" height="0.92" rx="0.3" ry="0.3"/><rect x="41.04" y="30.04" width="0.92" height="0.92" rx="0.3" ry="0.3"/><rect x="44.04" y="30.04" width="0.92" height="0.92" rx="0.3" ry="0.3"/><rect x="4.04" y="31.04" width="0.92" height="0.92" rx="0.3" ry="0.3"/><rect x="5.04" y="31.04" width="0.92" height="0.92" rx="0.3" ry="0.3"/><rect x="6.04" y="31.04" width="0.92" height="0.92" rx="0.3" ry="0.3"/><rect x="7.04" y="31.04" width="0.92" height="0.92" rx="0.3" ry="0.3"/><rect x="9.04" y="31.04" width="0.92" height="0.92" rx="0.3" ry="0.3"/><rect x="13.04" y="31.04" width="0.92" height="0.92" rx="0.3" ry="0.3"/><rect x="14.04" y="31.04" width="0.92" height="0.92" rx="0.3" ry="0.3"/><rect x="15.04" y="31.04" width="0.92" height="0.92" rx="0.3" ry="0.3"/><rect x="17.04" y="31.04" width="0.92" height="0.92" rx="0.3" ry="0.3"/><rect x="18.04" y="31.04" width="0.92" height="0.92" rx="0.3" ry="0.3"/><rect x="22.04" y="31.04" width="0.92" height="0.92" rx="0.3" ry="0.3"/><rect x="24.04" y="31.04" width="0.92" height="0.92" rx="0.3" ry="0.3"/><rect x="26.04" y="31.04" width="0.92" height="0.92" rx="0.3" ry="0.3"/><rect x="28.04" y="31.04" width="0.92" height="0.92" rx="0.3" ry="0.3"/><rect x="29.04" y="31.04" width="0.92" height="0.92" rx="0.3" ry="0.3"/><rect x="30.04" y="31.04" width="0.92" height="0.92" rx="0.3" ry="0.3"/><rect x="31.04" y="31.04" width="0.92" height="0.92" rx="0.3" ry="0.3"/><rect x="34.04" y="31.04" width="0.92" height="0.92" rx="0.3" ry="0.3"/><rect x="35.04" y="31.04" width="0.92" height="0.92" rx="0.3" ry="0.3"/><rect x="37.04" y="31.04" width="0.92" height="0.92" rx="0.3" ry="0.3"/><rect x="40.04" y="31.04" width="0.92" height="0.92" rx="0.3" ry="0.3"/><rect x="41.04" y="31.04" width="0.92" height="0.92" rx="0.3" ry="0.3"/><rect x="42.04" y="31.04" width="0.92" height="0.92" rx="0.3" ry="0.3"/><rect x="43.04" y="31.04" width="0.92" height="0.92" rx="0.3" ry="0.3"/><rect x="44.04" y="31.04" width="0.92" height="0.92" rx="0.3" ry="0.3"/><rect x="6.04" y="32.04" width="0.92" height="0.92" rx="0.3" ry="0.3"/><rect x="10.04" y="32.04" width="0.92" height="0.92" rx="0.3" ry="0.3"/><rect x="11.04" y="32.04" width="0.92" height="0.92" rx="0.3" ry="0.3"/><rect x="18.04" y="32.04" width="0.92" height="0.92" rx="0.3" ry="0.3"/><rect x="20.04" y="32.04" width="0.92" height="0.92" rx="0.3" ry="0.3"/><rect x="21.04" y="32.04" width="0.92" height="0.92" rx="0.3" ry="0.3"/><rect x="23.04" y="32.04" width="0.92" height="0.92" rx="0.3" ry="0.3"/><rect x="24.04" y="32.04" width="0.92" height="0.92" rx="0.3" ry="0.3"/><rect x="29.04" y="32.04" width="0.92" height="0.92" rx="0.3" ry="0.3"/><rect x="31.04" y="32.04" width="0.92" height="0.92" rx="0.3" ry="0.3"/><rect x="35.04" y="32.04" width="0.92" height="0.92" rx="0.3" ry="0.3"/><rect x="36.04" y="32.04" width="0.92" height="0.92" rx="0.3" ry="0.3"/><rect x="37.04" y="32.04" width="0.92" height="0.92" rx="0.3" ry="0.3"/><rect x="39.04" y="32.04" width="0.92" height="0.92" rx="0.3" ry="0.3"/><rect x="41.04" y="32.04" width="0.92" height="0.92" rx="0.3" ry="0.3"/><rect x="43.04" y="32.04" width="0.92" height="0.92" rx="0.3" ry="0.3"/><rect x="4.04" y="33.04" width="0.92" height="0.92" rx="0.3" ry="0.3"/><rect x="7.04" y="33.04" width="0.92" height="0.92" rx="0.3" ry="0.3"/><rect x="8.04" y="33.04" width="0.92" height="0.92" rx="0.3" ry="0.3"/><rect x="9.04" y="33.04" width="0.92" height="0.92" rx="0.3" ry="0.3"/><rect x="11.04" y="33.04" width="0.92" height="0.92" rx="0.3" ry="0.3"/><rect x="13.04" y="33.04" width="0.92" height="0.92" rx="0.3" ry="0.3"/><rect x="15.04" y="33.04" width="0.92" height="0.92" rx="0.3" ry="0.3"/><rect x="16.04" y="33.04" width="0.92" height="0.92" rx="0.3" ry="0.3"/><rect x="17.04" y="33.04" width="0.92" height="0.92" rx="0.3" ry="0.3"/><rect x="19.04" y="33.04" width="0.92" height="0.92" rx="0.3" ry="0.3"/><rect x="23.04" y="33.04" width="0.92" height="0.92" rx="0.3" ry="0.3"/><rect x="25.04" y="33.04" width="0.92" height="0.92" rx="0.3" ry="0.3"/><rect x="26.04" y="33.04" width="0.92" height="0.92" rx="0.3" ry="0.3"/><rect x="27.04" y="33.04" width="0.92" height="0.92" rx="0.3" ry="0.3"/><rect x="30.04" y="33.04" width="0.92" height="0.92" rx="0.3" ry="0.3"/><rect x="33.04" y="33.04" width="0.92" height="0.92" rx="0.3" ry="0.3"/><rect x="38.04" y="33.04" width="0.92" height="0.92" rx="0.3" ry="0.3"/><rect x="40.04" y="33.04" width="0.92" height="0.92" rx="0.3" ry="0.3"/><rect x="41.04" y="33.04" width="0.92" height="0.92" rx="0.3" ry="0.3"/><rect x="42.04" y="33.04" width="0.92" height="0.92" rx="0.3" ry="0.3"/><rect x="43.04" y="33.04" width="0.92" height="0.92" rx="0.3" ry="0.3"/><rect x="4.04" y="34.04" width="0.92" height="0.92" rx="0.3" ry="0.3"/><rect x="5.04" y="34.04" width="0.92" height="0.92" rx="0.3" ry="0.3"/><rect x="8.04" y="34.04" width="0.92" height="0.92" rx="0.3" ry="0.3"/><rect x="10.04" y="34.04" width="0.92" height="0.92" rx="0.3" ry="0.3"/><rect x="11.04" y="34.04" width="0.92" height="0.92" rx="0.3" ry="0.3"/><rect x="12.04" y="34.04" width="0.92" height="0.92" rx="0.3" ry="0.3"/><rect x="15.04" y="34.04" width="0.92" height="0.92" rx="0.3" ry="0.3"/><rect x="17.04" y="34.04" width="0.92" height="0.92" rx="0.3" ry="0.3"/><rect x="19.04" y="34.04" width="0.92" height="0.92" rx="0.3" ry="0.3"/><rect x="20.04" y="34.04" width="0.92" height="0.92" rx="0.3" ry="0.3"/><rect x="21.04" y="34.04" width="0.92" height="0.92" rx="0.3" ry="0.3"/><rect x="25.04" y="34.04" width="0.92" height="0.92" rx="0.3" ry="0.3"/><rect x="29.04" y="34.04" width="0.92" height="0.92" rx="0.3" ry="0.3"/><rect x="30.04" y="34.04" width="0.92" height="0.92" rx="0.3" ry="0.3"/><rect x="32.04" y="34.04" width="0.92" height="0.92" rx="0.3" ry="0.3"/><rect x="33.04" y="34.04" width="0.92" height="0.92" rx="0.3" ry="0.3"/><rect x="35.04" y="34.04" width="0.92" height="0.92" rx="0.3" ry="0.3"/><rect x="36.04" y="34.04" width="0.92" height="0.92" rx="0.3" ry="0.3"/><rect x="37.04" y="34.04" width="0.92" height="0.92" rx="0.3" ry="0.3"/><rect x="42.04" y="34.04" width="0.92" height="0.92" rx="0.3" ry="0.3"/><rect x="44.04" y="34.04" width="0.92" height="0.92" rx="0.3" ry="0.3"/><rect x="4.04" y="35.04" width="0.92" height="0.92" rx="0.3" ry="0.3"/><rect x="5.04" y="35.04" width="0.92" height="0.92" rx="0.3" ry="0.3"/><rect x="7.04" y="35.04" width="0.92" height="0.92" rx="0.3" ry="0.3"/><rect x="8.04" y="35.04" width="0.92" height="0.92" rx="0.3" ry="0.3"/><rect x="12.04" y="35.04" width="0.92" height="0.92" rx="0.3" ry="0.3"/><rect x="13.04" y="35.04" width="0.92" height="0.92" rx="0.3" ry="0.3"/><rect x="14.04" y="35.04" width="0.92" height="0.92" rx="0.3" ry="0.3"/><rect x="16.04" y="35.04" width="0.92" height="0.92" rx="0.3" ry="0.3"/><rect x="17.04" y="35.04" width="0.92" height="0.92" rx="0.3" ry="0.3"/><rect x="19.04" y="35.04" width="0.92" height="0.92" rx="0.3" ry="0.3"/><rect x="20.04" y="35.04" width="0.92" height="0.92" rx="0.3" ry="0.3"/><rect x="22.04" y="35.04" width="0.92" height="0.92" rx="0.3" ry="0.3"/><rect x="23.04" y="35.04" width="0.92" height="0.92" rx="0.3" ry="0.3"/><rect x="26.04" y="35.04" width="0.92" height="0.92" rx="0.3" ry="0.3"/><rect x="28.04" y="35.04" width="0.92" height="0.92" rx="0.3" ry="0.3"/><rect x="31.04" y="35.04" width="0.92" height="0.92" rx="0.3" ry="0.3"/><rect x="32.04" y="35.04" width="0.92" height="0.92" rx="0.3" ry="0.3"/><rect x="34.04" y="35.04" width="0.92" height="0.92" rx="0.3" ry="0.3"/><rect x="35.04" y="35.04" width="0.92" height="0.92" rx="0.3" ry="0.3"/><rect x="36.04" y="35.04" width="0.92" height="0.92" rx="0.3" ry="0.3"/><rect x="38.04" y="35.04" width="0.92" height="0.92" rx="0.3" ry="0.3"/><rect x="40.04" y="35.04" width="0.92" height="0.92" rx="0.3" ry="0.3"/><rect x="42.04" y="35.04" width="0.92" height="0.92" rx="0.3" ry="0.3"/><rect x="43.04" y="35.04" width="0.92" height="0.92" rx="0.3" ry="0.3"/><rect x="4.04" y="36.04" width="0.92" height="0.92" rx="0.3" ry="0.3"/><rect x="5.04" y="36.04" width="0.92" height="0.92" rx="0.3" ry="0.3"/><rect x="6.04" y="36.04" width="0.92" height="0.92" rx="0.3" ry="0.3"/><rect x="8.04" y="36.04" width="0.92" height="0.92" rx="0.3" ry="0.3"/><rect x="9.04" y="36.04" width="0.92" height="0.92" rx="0.3" ry="0.3"/><rect x="10.04" y="36.04" width="0.92" height="0.92" rx="0.3" ry="0.3"/><rect x="11.04" y="36.04" width="0.92" height="0.92" rx="0.3" ry="0.3"/><rect x="12.04" y="36.04" width="0.92" height="0.92" rx="0.3" ry="0.3"/><rect x="13.04" y="36.04" width="0.92" height="0.92" rx="0.3" ry="0.3"/><rect x="14.04" y="36.04" width="0.92" height="0.92" rx="0.3" ry="0.3"/><rect x="15.04" y="36.04" width="0.92" height="0.92" rx="0.3" ry="0.3"/><rect x="16.04" y="36.04" width="0.92" height="0.92" rx="0.3" ry="0.3"/><rect x="17.04" y="36.04" width="0.92" height="0.92" rx="0.3" ry="0.3"/><rect x="18.04" y="36.04" width="0.92" height="0.92" rx="0.3" ry="0.3"/><rect x="24.04" y="36.04" width="0.92" height="0.92" rx="0.3" ry="0.3"/><rect x="25.04" y="36.04" width="0.92" height="0.92" rx="0.3" ry="0.3"/><rect x="29.04" y="36.04" width="0.92" height="0.92" rx="0.3" ry="0.3"/><rect x="32.04" y="36.04" width="0.92" height="0.92" rx="0.3" ry="0.3"/><rect x="33.04" y="36.04" width="0.92" height="0.92" rx="0.3" ry="0.3"/><rect x="35.04" y="36.04" width="0.92" height="0.92" rx="0.3" ry="0.3"/><rect x="36.04" y="36.04" width="0.92" height="0.92" rx="0.3" ry="0.3"/><rect x="37.04" y="36.04" width="0.92" height="0.92" rx="0.3" ry="0.3"/><rect x="38.04" y="36.04" width="0.92" height="0.92" rx="0.3" ry="0.3"/><rect x="39.04" y="36.04" width="0.92" height="0.92" rx="0.3" ry="0.3"/><rect x="40.04" y="36.04" width="0.92" height="0.92" rx="0.3" ry="0.3"/><rect x="41.04" y="36.04" width="0.92" height="0.92" rx="0.3" ry="0.3"/><rect x="42.04" y="36.04" width="0.92" height="0.92" rx="0.3" ry="0.3"/><rect x="43.04" y="36.04" width="0.92" height="0.92" rx="0.3" ry="0.3"/><rect x="12.04" y="37.04" width="0.92" height="0.92" rx="0.3" ry="0.3"/><rect x="15.04" y="37.04" width="0.92" height="0.92" rx="0.3" ry="0.3"/><rect x="16.04" y="37.04" width="0.92" height="0.92" rx="0.3" ry="0.3"/><rect x="17.04" y="37.04" width="0.92" height="0.92" rx="0.3" ry="0.3"/><rect x="19.04" y="37.04" width="0.92" height="0.92" rx="0.3" ry="0.3"/><rect x="21.04" y="37.04" width="0.92" height="0.92" rx="0.3" ry="0.3"/><rect x="22.04" y="37.04" width="0.92" height="0.92" rx="0.3" ry="0.3"/><rect x="24.04" y="37.04" width="0.92" height="0.92" rx="0.3" ry="0.3"/><rect x="26.04" y="37.04" width="0.92" height="0.92" rx="0.3" ry="0.3"/><rect x="27.04" y="37.04" width="0.92" height="0.92" rx="0.3" ry="0.3"/><rect x="29.04" y="37.04" width="0.92" height="0.92" rx="0.3" ry="0.3"/><rect x="31.04" y="37.04" width="0.92" height="0.92" rx="0.3" ry="0.3"/><rect x="32.04" y="37.04" width="0.92" height="0.92" rx="0.3" ry="0.3"/><rect x="34.04" y="37.04" width="0.92" height="0.92" rx="0.3" ry="0.3"/><rect x="36.04" y="37.04" width="0.92" height="0.92" rx="0.3" ry="0.3"/><rect x="40.04" y="37.04" width="0.92" height="0.92" rx="0.3" ry="0.3"/><rect x="41.04" y="37.04" width="0.92" height="0.92" rx="0.3" ry="0.3"/><rect x="42.04" y="37.04" width="0.92" height="0.92" rx="0.3" ry="0.3"/><rect x="43.04" y="37.04" width="0.92" height="0.92" rx="0.3" ry="0.3"/><rect x="12.04" y="38.04" width="0.92" height="0.92" rx="0.3" ry="0.3"/><rect x="13.04" y="38.04" width="0.92" height="0.92" rx="0.3" ry="0.3"/><rect x="14.04" y="38.04" width="0.92" height="0.92" rx="0.3" ry="0.3"/><rect x="15.04" y="38.04" width="0.92" height="0.92" rx="0.3" ry="0.3"/><rect x="16.04" y="38.04" width="0.92" height="0.92" rx="0.3" ry="0.3"/><rect x="19.04" y="38.04" width="0.92" height="0.92" rx="0.3" ry="0.3"/><rect x="22.04" y="38.04" width="0.92" height="0.92" rx="0.3" ry="0.3"/><rect x="23.04" y="38.04" width="0.92" height="0.92" rx="0.3" ry="0.3"/><rect x="24.04" y="38.04" width="0.92" height="0.92" rx="0.3" ry="0.3"/><rect x="27.04" y="38.04" width="0.92" height="0.92" rx="0.3" ry="0.3"/><rect x="30.04" y="38.04" width="0.92" height="0.92" rx="0.3" ry="0.3"/><rect x="31.04" y="38.04" width="0.92" height="0.92" rx="0.3" ry="0.3"/><rect x="32.04" y="38.04" width="0.92" height="0.92" rx="0.3" ry="0.3"/><rect x="33.04" y="38.04" width="0.92" height="0.92" rx="0.3" ry="0.3"/><rect x="34.04" y="38.04" width="0.92" height="0.92" rx="0.3" ry="0.3"/><rect x="35.04" y="38.04" width="0.92" height="0.92" rx="0.3" ry="0.3"/><rect x="36.04" y="38.04" width="0.92" height="0.92" rx="0.3" ry="0.3"/><rect x="38.04" y="38.04" width="0.92" height="0.92" rx="0.3" ry="0.3"/><rect x="40.04" y="38.04" width="0.92" height="0.92" rx="0.3" ry="0.3"/><rect x="41.04" y="38.04" width="0.92" height="0.92" rx="0.3" ry="0.3"/><rect x="42.04" y="38.04" width="0.92" height="0.92" rx="0.3" ry="0.3"/><rect x="13.04" y="39.04" width="0.92" height="0.92" rx="0.3" ry="0.3"/><rect x="14.04" y="39.04" width="0.92" height="0.92" rx="0.3" ry="0.3"/><rect x="16.04" y="39.04" width="0.92" height="0.92" rx="0.3" ry="0.3"/><rect x="18.04" y="39.04" width="0.92" height="0.92" rx="0.3" ry="0.3"/><rect x="20.04" y="39.04" width="0.92" height="0.92" rx="0.3" ry="0.3"/><rect x="23.04" y="39.04" width="0.92" height="0.92" rx="0.3" ry="0.3"/><rect x="24.04" y="39.04" width="0.92" height="0.92" rx="0.3" ry="0.3"/><rect x="25.04" y="39.04" width="0.92" height="0.92" rx="0.3" ry="0.3"/><rect x="28.04" y="39.04" width="0.92" height="0.92" rx="0.3" ry="0.3"/><rect x="30.04" y="39.04" width="0.92" height="0.92" rx="0.3" ry="0.3"/><rect x="32.04" y="39.04" width="0.92" height="0.92" rx="0.3" ry="0.3"/><rect x="33.04" y="39.04" width="0.92" height="0.92" rx="0.3" ry="0.3"/><rect x="36.04" y="39.04" width="0.92" height="0.92" rx="0.3" ry="0.3"/><rect x="40.04" y="39.04" width="0.92" height="0.92" rx="0.3" ry="0.3"/><rect x="41.04" y="39.04" width="0.92" height="0.92" rx="0.3" ry="0.3"/><rect x="12.04" y="40.04" width="0.92" height="0.92" rx="0.3" ry="0.3"/><rect x="14.04" y="40.04" width="0.92" height="0.92" rx="0.3" ry="0.3"/><rect x="16.04" y="40.04" width="0.92" height="0.92" rx="0.3" ry="0.3"/><rect x="20.04" y="40.04" width="0.92" height="0.92" rx="0.3" ry="0.3"/><rect x="21.04" y="40.04" width="0.92" height="0.92" rx="0.3" ry="0.3"/><rect x="22.04" y="40.04" width="0.92" height="0.92" rx="0.3" ry="0.3"/><rect x="24.04" y="40.04" width="0.92" height="0.92" rx="0.3" ry="0.3"/><rect x="26.04" y="40.04" width="0.92" height="0.92" rx="0.3" ry="0.3"/><rect x="27.04" y="40.04" width="0.92" height="0.92" rx="0.3" ry="0.3"/><rect x="29.04" y="40.04" width="0.92" height="0.92" rx="0.3" ry="0.3"/><rect x="31.04" y="40.04" width="0.92" height="0.92" rx="0.3" ry="0.3"/><rect x="32.04" y="40.04" width="0.92" height="0.92" rx="0.3" ry="0.3"/><rect x="33.04" y="40.04" width="0.92" height="0.92" rx="0.3" ry="0.3"/><rect x="34.04" y="40.04" width="0.92" height="0.92" rx="0.3" ry="0.3"/><rect x="35.04" y="40.04" width="0.92" height="0.92" rx="0.3" ry="0.3"/><rect x="36.04" y="40.04" width="0.92" height="0.92" rx="0.3" ry="0.3"/><rect x="37.04" y="40.04" width="0.92" height="0.92" rx="0.3" ry="0.3"/><rect x="38.04" y="40.04" width="0.92" height="0.92" rx="0.3" ry="0.3"/><rect x="39.04" y="40.04" width="0.92" height="0.92" rx="0.3" ry="0.3"/><rect x="40.04" y="40.04" width="0.92" height="0.92" rx="0.3" ry="0.3"/><rect x="41.04" y="40.04" width="0.92" height="0.92" rx="0.3" ry="0.3"/><rect x="43.04" y="40.04" width="0.92" height="0.92" rx="0.3" ry="0.3"/><rect x="44.04" y="40.04" width="0.92" height="0.92" rx="0.3" ry="0.3"/><rect x="12.04" y="41.04" width="0.92" height="0.92" rx="0.3" ry="0.3"/><rect x="13.04" y="41.04" width="0.92" height="0.92" rx="0.3" ry="0.3"/><rect x="15.04" y="41.04" width="0.92" height="0.92" rx="0.3" ry="0.3"/><rect x="16.04" y="41.04" width="0.92" height="0.92" rx="0.3" ry="0.3"/><rect x="17.04" y="41.04" width="0.92" height="0.92" rx="0.3" ry="0.3"/><rect x="18.04" y="41.04" width="0.92" height="0.92" rx="0.3" ry="0.3"/><rect x="21.04" y="41.04" width="0.92" height="0.92" rx="0.3" ry="0.3"/><rect x="25.04" y="41.04" width="0.92" height="0.92" rx="0.3" ry="0.3"/><rect x="26.04" y="41.04" width="0.92" height="0.92" rx="0.3" ry="0.3"/><rect x="29.04" y="41.04" width="0.92" height="0.92" rx="0.3" ry="0.3"/><rect x="31.04" y="41.04" width="0.92" height="0.92" rx="0.3" ry="0.3"/><rect x="33.04" y="41.04" width="0.92" height="0.92" rx="0.3" ry="0.3"/><rect x="39.04" y="41.04" width="0.92" height="0.92" rx="0.3" ry="0.3"/><rect x="41.04" y="41.04" width="0.92" height="0.92" rx="0.3" ry="0.3"/><rect x="42.04" y="41.04" width="0.92" height="0.92" rx="0.3" ry="0.3"/><rect x="43.04" y="41.04" width="0.92" height="0.92" rx="0.3" ry="0.3"/><rect x="44.04" y="41.04" width="0.92" height="0.92" rx="0.3" ry="0.3"/><rect x="15.04" y="42.04" width="0.92" height="0.92" rx="0.3" ry="0.3"/><rect x="18.04" y="42.04" width="0.92" height="0.92" rx="0.3" ry="0.3"/><rect x="19.04" y="42.04" width="0.92" height="0.92" rx="0.3" ry="0.3"/><rect x="20.04" y="42.04" width="0.92" height="0.92" rx="0.3" ry="0.3"/><rect x="22.04" y="42.04" width="0.92" height="0.92" rx="0.3" ry="0.3"/><rect x="24.04" y="42.04" width="0.92" height="0.92" rx="0.3" ry="0.3"/><rect x="25.04" y="42.04" width="0.92" height="0.92" rx="0.3" ry="0.3"/><rect x="26.04" y="42.04" width="0.92" height="0.92" rx="0.3" ry="0.3"/><rect x="27.04" y="42.04" width="0.92" height="0.92" rx="0.3" ry="0.3"/><rect x="28.04" y="42.04" width="0.92" height="0.92" rx="0.3" ry="0.3"/><rect x="29.04" y="42.04" width="0.92" height="0.92" rx="0.3" ry="0.3"/><rect x="30.04" y="42.04" width="0.92" height="0.92" rx="0.3" ry="0.3"/><rect x="31.04" y="42.04" width="0.92" height="0.92" rx="0.3" ry="0.3"/><rect x="36.04" y="42.04" width="0.92" height="0.92" rx="0.3" ry="0.3"/><rect x="37.04" y="42.04" width="0.92" height="0.92" rx="0.3" ry="0.3"/><rect x="39.04" y="42.04" width="0.92" height="0.92" rx="0.3" ry="0.3"/><rect x="40.04" y="42.04" width="0.92" height="0.92" rx="0.3" ry="0.3"/><rect x="43.04" y="42.04" width="0.92" height="0.92" rx="0.3" ry="0.3"/><rect x="44.04" y="42.04" width="0.92" height="0.92" rx="0.3" ry="0.3"/><rect x="15.04" y="43.04" width="0.92" height="0.92" rx="0.3" ry="0.3"/><rect x="17.04" y="43.04" width="0.92" height="0.92" rx="0.3" ry="0.3"/><rect x="18.04" y="43.04" width="0.92" height="0.92" rx="0.3" ry="0.3"/><rect x="20.04" y="43.04" width="0.92" height="0.92" rx="0.3" ry="0.3"/><rect x="22.04" y="43.04" width="0.92" height="0.92" rx="0.3" ry="0.3"/><rect x="23.04" y="43.04" width="0.92" height="0.92" rx="0.3" ry="0.3"/><rect x="25.04" y="43.04" width="0.92" height="0.92" rx="0.3" ry="0.3"/><rect x="29.04" y="43.04" width="0.92" height="0.92" rx="0.3" ry="0.3"/><rect x="30.04" y="43.04" width="0.92" height="0.92" rx="0.3" ry="0.3"/><rect x="32.04" y="43.04" width="0.92" height="0.92" rx="0.3" ry="0.3"/><rect x="35.04" y="43.04" width="0.92" height="0.92" rx="0.3" ry="0.3"/><rect x="37.04" y="43.04" width="0.92" height="0.92" rx="0.3" ry="0.3"/><rect x="40.04" y="43.04" width="0.92" height="0.92" rx="0.3" ry="0.3"/><rect x="41.04" y="43.04" width="0.92" height="0.92" rx="0.3" ry="0.3"/><rect x="42.04" y="43.04" width="0.92" height="0.92" rx="0.3" ry="0.3"/><rect x="44.04" y="43.04" width="0.92" height="0.92" rx="0.3" ry="0.3"/><rect x="14.04" y="44.04" width="0.92" height="0.92" rx="0.3" ry="0.3"/><rect x="17.04" y="44.04" width="0.92" height="0.92" rx="0.3" ry="0.3"/><rect x="18.04" y="44.04" width="0.92" height="0.92" rx="0.3" ry="0.3"/><rect x="20.04" y="44.04" width="0.92" height="0.92" rx="0.3" ry="0.3"/><rect x="21.04" y="44.04" width="0.92" height="0.92" rx="0.3" ry="0.3"/><rect x="22.04" y="44.04" width="0.92" height="0.92" rx="0.3" ry="0.3"/><rect x="23.04" y="44.04" width="0.92" height="0.92" rx="0.3" ry="0.3"/><rect x="25.04" y="44.04" width="0.92" height="0.92" rx="0.3" ry="0.3"/><rect x="26.04" y="44.04" width="0.92" height="0.92" rx="0.3" ry="0.3"/><rect x="29.04" y="44.04" width="0.92" height="0.92" rx="0.3" ry="0.3"/><rect x="35.04" y="44.04" width="0.92" height="0.92" rx="0.3" ry="0.3"/><rect x="36.04" y="44.04" width="0.92" height="0.92" rx="0.3" ry="0.3"/><rect x="40.04" y="44.04" width="0.92" height="0.92" rx="0.3" ry="0.3"/></g><rect x="4" y="4" width="7" height="7" fill="#8AB4F8"/><rect x="5" y="5" width="5" height="5" fill="#FFFFFF"/><rect x="6" y="6" width="3" height="3" rx="0.85" ry="0.85" fill="#4FD0E0"/><rect x="38" y="4" width="7" height="7" fill="#8AB4F8"/><rect x="39" y="5" width="5" height="5" fill="#FFFFFF"/><rect x="40" y="6" width="3" height="3" rx="0.85" ry="0.85" fill="#4FD0E0"/><rect x="4" y="38" width="7" height="7" fill="#8AB4F8"/><rect x="5" y="39" width="5" height="5" fill="#FFFFFF"/><rect x="6" y="40" width="3" height="3" rx="0.85" ry="0.85" fill="#4FD0E0"/></svg>